<?xml version="1.0" encoding="utf-8"?>
<!-- Generator: Adobe Illustrator 23.0.1, SVG Export Plug-In . SVG Version: 6.00 Build 0)  -->
<svg version="1.1" id="Layer_1" xmlns="http://www.w3.org/2000/svg" xmlns:xlink="http://www.w3.org/1999/xlink" x="0px" y="0px"
	 viewBox="0 0 1052 1052" style="enable-background:new 0 0 1052 1052;" xml:space="preserve">
<g transform="translate(0.000000,1052.000000) scale(0.100000,-0.100000)">
	<path d="M7145.9,4920.5c-197.1-15.7-362.5-86.6-485.6-208.6c-126.7-125.7-187.2-279.1-187.2-473.6c0-291,119.5-494.4,385.9-655.6
		c67.8-40.7,160.1-85,319.7-153.8c217.5-93.4,298.3-137.7,350-193c63.6-68.3,81.3-177.3,41.2-260.8c-7.8-16.2-28.2-43.3-46.4-61.5
		c-61.5-62.1-158.5-94.9-279-94.9c-203.4,0-355.2,83.5-477.2,263.9c-16.7,24-31.8,43.8-33.9,43.8c-4.7,0-401.6-229-410-236.8
		c-5.2-4.7-1-15.7,19.3-49c158.5-267.1,406.3-423.6,741.1-468.4c87.6-12,251.9-11.5,335.9,0c210.7,29.7,368.7,99.6,491.3,218.6
		c130.4,125.7,194.5,288.4,194.5,492.4c0,130.4-21.4,232.1-69.9,332.8c-33.4,68.8-66.8,115.2-124.1,173.7
		c-110.1,111.6-252.5,196.1-536.7,318.2c-214.9,92.3-286.8,132-334.3,182.6c-45.4,48.5-64.7,105.4-60.5,176.3
		c3.7,56.3,19.3,94.4,53.7,131.4c49.6,53.7,106.9,76.2,195.6,75.6c100.7,0,165.9-26.1,232.1-92.8c23.5-22.9,53.7-60,67.8-82.4
		c16.2-25.5,28.2-39.6,32.3-38.1c13.6,5.7,392.7,250.9,392.7,254.5c0,2.1-19.3,32.3-42.8,67.8c-50.1,75.1-140.3,169-202.4,210.2
		c-114.8,76.2-237.3,115.2-399,127.3C7230.9,4926.2,7220.5,4926.2,7145.9,4920.5z"/>
	<path d="M5522.2,3972.8l-1.6-922.2l-11.5-43.3c-15.1-56.8-32.9-90.7-64.2-122c-43.8-43.8-100.1-62.1-194-62.6
		c-134-0.5-214.4,56.3-307.7,215.9c-15.1,25-28.7,45.4-30.2,44.9c-2.1-1-96.5-57.9-209.7-126.2l-206-125.1l15.7-31.3
		c93.4-186.2,255-327,449.6-391.7c205.5-68.3,469.4-62.1,662.9,15.7c232.1,93.9,368.2,287.9,404.2,576.3
		c3.1,29.2,5.2,355.2,5.2,968.5v924.8h-255.6h-255L5522.2,3972.8z"/>
</g>
<path d="M386.2,792.5h-74.5c-30.1,0-54.7-24.5-54.7-54.7V314.4c0-30.1,24.5-54.7,54.7-54.7h427.1c30.1,0,54.7,24.5,54.7,54.7v189.5
	h24.6V314.4c0-43.7-35.6-79.3-79.3-79.3H311.7c-43.7,0-79.3,35.6-79.3,79.3v423.4c0,43.7,35.6,79.3,79.3,79.3h74.5V792.5z"/>
</svg>
